<svg xmlns="http://www.w3.org/2000/svg">
<defs>
<font
       id="EmbeddedFont_1"
       horiz-adv-x="2048"
       horiz-origin-x="0"
       horiz-origin-y="0"
       vert-origin-x="0"
       vert-origin-y="0"
       vert-adv-y="0">
      <font-face
         font-family="Arial embedded"
         units-per-em="2048"
         ascent="1852"
         descent="503"
         id="font-face7" />
      <missing-glyph
         horiz-adv-x="2048"
         id="missing-glyph9">
        <path
           style="fill:none;stroke:black;stroke-width:33"
           d="M 0,2048 L 2047,2048 2047,1 0,1 0,2048 Z"
           id="path11" />
      </missing-glyph>
      <glyph
         unicode=" "
         horiz-adv-x="1032"
         id="glyph13" />
      <glyph
         unicode="%"
         horiz-adv-x="1588"
         id="glyph15">
        <path
           d="M 119,1113 C 119,1218 145,1307 198,1380 251,1453 327,1490 427,1490 519,1490 595,1457 656,1392 716,1326 746,1229 746,1102 746,978 716,883 655,816 594,749 518,715 429,715 340,715 267,748 208,814 149,880 119,980 119,1113 Z M 432,1366 C 387,1366 350,1347 321,1308 291,1269 276,1198 276,1095 276,1001 291,935 321,897 351,858 388,839 432,839 477,839 515,858 545,897 574,936 589,1006 589,1109 589,1204 574,1270 544,1309 514,1347 477,1366 432,1366 Z M 582,-54 L 433,-54 1235,1490 1381,1490 582,-54 Z M 1067,343 C 1067,448 1093,538 1146,611 1198,684 1275,720 1376,720 1467,720 1543,687 1604,622 1664,556 1694,459 1694,332 1694,208 1664,113 1603,46 1542,-21 1466,-54 1377,-54 1288,-54 1214,-21 1155,45 1096,111 1067,210 1067,343 Z M 1381,596 C 1335,596 1298,577 1268,538 1239,499 1224,428 1224,325 1224,232 1239,166 1269,127 1299,88 1336,69 1380,69 1425,69 1463,88 1493,127 1522,166 1537,236 1537,339 1537,434 1522,500 1492,539 1462,577 1425,596 1381,596 Z"
           id="path17" />
      </glyph>
      <glyph
         unicode="/"
         horiz-adv-x="557"
         id="glyph19">
        <path
           d="M 145,-25 L 0,-25 425,1490 569,1490 145,-25 Z"
           id="path21" />
      </glyph>
      <glyph
         unicode="1"
         horiz-adv-x="530"
         id="glyph23">
        <path
           d="M 763,1471 L 763,0 583,0 583,1146 C 540,1105 483,1063 413,1022 342,981 279,950 223,929 L 223,1103 C 324,1150 412,1208 487,1275 562,1342 616,1408 647,1471 L 763,1471 Z"
           id="path25" />
      </glyph>
      <glyph
         unicode="2"
         horiz-adv-x="953"
         id="glyph27">
        <path
           d="M 312,172 L 1031,172 1031,0 62,0 C 61,42 68,84 83,124 108,190 147,255 202,319 256,383 334,457 437,541 596,671 704,775 760,851 816,928 844,1000 844,1068 844,1139 819,1200 768,1249 717,1298 650,1322 568,1322 481,1322 412,1296 360,1244 308,1192 282,1120 281,1028 L 96,1047 C 109,1185 156,1290 239,1363 322,1435 433,1471 572,1471 713,1471 824,1432 906,1354 988,1276 1029,1179 1029,1064 1029,1005 1017,948 993,891 969,834 929,775 874,712 818,649 725,563 596,454 488,363 419,302 388,270 358,237 332,205 312,172 Z"
           id="path29" />
      </glyph>
      <glyph
         unicode="3"
         horiz-adv-x="954"
         id="glyph31">
        <path
           d="M 86,387 L 266,411 C 287,309 322,236 371,191 421,146 481,123 553,123 638,123 710,152 768,211 826,270 855,342 855,429 855,512 828,580 774,634 720,687 651,714 568,714 534,714 492,707 441,694 L 461,852 C 473,851 483,850 490,850 567,850 636,870 697,910 758,950 789,1011 789,1094 789,1160 767,1215 722,1258 677,1301 620,1323 549,1323 479,1323 421,1301 374,1257 327,1213 297,1147 284,1059 L 104,1091 C 126,1212 176,1305 254,1372 332,1438 429,1471 545,1471 625,1471 699,1454 766,1420 833,1385 885,1339 921,1279 956,1220 974,1157 974,1091 974,1027 957,970 923,918 889,866 839,825 772,794 859,774 926,733 974,670 1022,607 1046,528 1046,433 1046,305 999,197 906,108 813,19 695,-25 552,-25 423,-25 317,12 232,89 147,166 98,265 86,387 Z"
           id="path33" />
      </glyph>
      <glyph
         unicode="6"
         horiz-adv-x="980"
         id="glyph35">
        <path
           d="M 1020,1106 L 841,1092 C 825,1163 802,1214 773,1246 724,1297 664,1323 593,1323 535,1323 485,1307 441,1275 384,1234 340,1173 307,1094 274,1015 257,902 256,755 299,821 352,870 415,902 478,934 544,950 612,950 733,950 835,906 919,818 1004,729 1046,615 1046,475 1046,383 1026,298 986,219 947,140 892,79 823,37 753,-4 675,-25 587,-25 436,-25 314,29 219,140 124,250 77,432 77,685 77,968 129,1174 234,1303 326,1415 449,1471 604,1471 719,1471 814,1439 887,1374 961,1309 1005,1220 1020,1106 Z M 284,474 C 284,412 297,353 324,296 350,239 387,196 434,167 481,137 531,122 583,122 659,122 725,153 779,214 834,275 861,359 861,464 861,565 834,645 780,704 726,762 658,791 576,791 495,791 426,762 369,704 312,645 284,569 284,474 Z"
           id="path37" />
      </glyph>
      <glyph
         unicode="8"
         horiz-adv-x="954"
         id="glyph39">
        <path
           d="M 363,794 C 288,821 232,860 196,911 160,962 142,1022 142,1093 142,1200 180,1289 257,1362 334,1435 436,1471 563,1471 691,1471 794,1434 872,1360 950,1285 989,1195 989,1088 989,1020 971,961 936,911 900,860 846,821 773,794 863,765 932,717 979,652 1026,587 1049,509 1049,418 1049,293 1005,187 916,102 827,17 711,-25 566,-25 421,-25 305,17 216,103 127,188 83,295 83,423 83,518 107,598 156,663 204,727 273,771 363,794 Z M 327,1099 C 327,1030 349,973 394,929 438,885 496,863 568,863 637,863 694,885 738,929 782,972 804,1026 804,1089 804,1155 781,1211 736,1256 690,1301 634,1323 566,1323 497,1323 440,1301 395,1257 350,1213 327,1160 327,1099 Z M 268,422 C 268,371 280,321 304,273 328,225 364,188 413,162 461,135 512,122 568,122 654,122 725,150 780,205 836,260 864,331 864,416 864,503 835,574 778,631 720,688 648,716 562,716 477,716 407,688 351,632 296,576 268,506 268,422 Z"
           id="path41" />
      </glyph>
      <glyph
         unicode="B"
         horiz-adv-x="1113"
         id="glyph43">
        <path
           d="M 709,0 L 150,0 150,1465 700,1465 C 812,1465 902,1450 970,1421 1037,1391 1090,1345 1129,1284 1167,1222 1186,1157 1186,1090 1186,1027 1169,968 1135,913 1101,858 1050,813 981,779 1070,753 1138,709 1186,646 1233,583 1257,509 1257,424 1257,355 1243,292 1214,233 1185,174 1149,128 1106,96 1063,64 1010,40 946,24 881,7 802,0 709,0 Z M 344,1292 L 344,849 661,849 C 747,849 809,855 846,866 895,881 933,905 958,939 983,973 995,1016 995,1067 995,1116 983,1159 960,1196 937,1233 903,1258 860,1272 817,1285 742,1292 637,1292 L 344,1292 Z M 344,676 L 344,172 710,172 C 772,172 816,174 842,179 886,187 924,200 954,219 984,238 1009,265 1028,301 1047,336 1057,377 1057,424 1057,479 1043,526 1015,567 986,607 947,635 898,652 848,668 776,676 683,676 L 344,676 Z"
           id="path45" />
      </glyph>
      <glyph
         unicode="C"
         horiz-adv-x="1298"
         id="glyph47">
        <path
           d="M 1204,513 L 1398,464 C 1357,305 1284,183 1179,100 1073,16 944,-25 791,-25 633,-25 505,6 406,71 307,135 231,228 180,350 128,472 102,603 102,744 102,896 131,1030 190,1143 248,1257 331,1343 439,1402 546,1461 665,1491 794,1491 941,1491 1064,1454 1164,1379 1264,1304 1334,1199 1373,1064 L 1182,1019 C 1148,1125 1099,1203 1034,1252 969,1301 888,1325 790,1325 677,1325 583,1298 508,1244 432,1190 379,1117 348,1026 317,935 302,841 302,745 302,620 320,511 357,418 393,325 449,255 526,209 603,163 686,140 775,140 884,140 976,171 1051,234 1126,297 1177,390 1204,513 Z"
           id="path49" />
      </glyph>
      <glyph
         unicode="D"
         horiz-adv-x="1218"
         id="glyph51">
        <path
           d="M 687,0 L 158,0 158,1465 663,1465 C 777,1465 864,1458 924,1444 1008,1425 1080,1390 1139,1339 1216,1274 1274,1190 1313,1089 1351,987 1370,871 1370,740 1370,629 1357,530 1331,444 1305,358 1272,287 1231,231 1190,174 1146,130 1098,98 1049,65 991,41 923,24 854,7 776,0 687,0 Z M 352,1292 L 352,172 665,172 C 762,172 838,181 893,199 948,217 991,242 1024,275 1070,321 1106,383 1132,461 1157,538 1170,632 1170,743 1170,896 1145,1014 1095,1097 1044,1179 983,1234 911,1262 859,1282 775,1292 660,1292 L 352,1292 Z"
           id="path53" />
      </glyph>
      <glyph
         unicode="F"
         horiz-adv-x="980"
         id="glyph55">
        <path
           d="M 362,0 L 168,0 168,1465 1157,1465 1157,1292 362,1292 362,838 1050,838 1050,665 362,665 362,0 Z"
           id="path57" />
      </glyph>
      <glyph
         unicode="M"
         horiz-adv-x="1404"
         id="glyph59">
        <path
           d="M 339,0 L 152,0 152,1465 444,1465 791,427 C 823,330 847,258 862,210 878,263 904,342 940,445 L 1292,1465 1553,1465 1553,0 1366,0 1366,1226 938,0 764,0 339,1247 339,0 Z"
           id="path61" />
      </glyph>
      <glyph
         unicode="O"
         horiz-adv-x="1404"
         id="glyph63">
        <path
           d="M 99,713 C 99,956 164,1147 295,1285 426,1422 594,1491 801,1491 936,1491 1058,1459 1167,1394 1276,1329 1359,1239 1416,1124 1473,1008 1501,877 1501,730 1501,581 1471,448 1411,331 1351,214 1266,125 1156,65 1046,4 927,-25 800,-25 662,-25 539,7 430,74 321,141 239,232 183,347 127,462 99,584 99,713 Z M 299,710 C 299,533 347,394 442,293 537,191 656,140 799,140 945,140 1065,191 1160,294 1254,397 1301,542 1301,731 1301,850 1281,955 1241,1044 1200,1133 1141,1202 1064,1251 986,1300 899,1324 802,1324 665,1324 547,1277 448,1183 349,1088 299,931 299,710 Z"
           id="path65" />
      </glyph>
      <glyph
         unicode="P"
         horiz-adv-x="1139"
         id="glyph67">
        <path
           d="M 352,0 L 158,0 158,1465 711,1465 C 808,1465 883,1460 934,1451 1006,1439 1066,1416 1115,1383 1164,1349 1203,1302 1233,1241 1262,1180 1277,1114 1277,1041 1277,916 1237,811 1158,725 1079,638 935,595 728,595 L 352,595 352,0 Z M 352,1292 L 352,768 731,768 C 856,768 945,791 998,838 1051,885 1077,950 1077,1035 1077,1096 1062,1149 1031,1193 1000,1236 959,1265 908,1279 875,1288 815,1292 727,1292 L 352,1292 Z"
           id="path69" />
      </glyph>
      <glyph
         unicode="T"
         horiz-adv-x="1166"
         id="glyph71">
        <path
           d="M 725,0 L 531,0 531,1292 48,1292 48,1465 1210,1465 1210,1292 725,1292 725,0 Z"
           id="path73" />
      </glyph>
      <glyph
         unicode="U"
         horiz-adv-x="1138"
         id="glyph75">
        <path
           d="M 1120,619 L 1120,1465 1314,1465 1314,618 C 1314,471 1297,354 1264,267 1231,180 1171,110 1084,56 997,1 882,-25 741,-25 604,-25 491,-1 404,45 317,92 254,161 217,251 180,340 161,463 161,618 L 161,1465 355,1465 355,619 C 355,492 367,398 391,338 414,277 455,231 513,198 570,165 641,149 724,149 867,149 968,181 1029,246 1090,311 1120,435 1120,619 Z"
           id="path77" />
      </glyph>
      <glyph
         unicode="a"
         horiz-adv-x="980"
         id="glyph79">
        <path
           d="M 828,130 C 761,73 697,33 636,10 574,-12 508,-24 437,-24 320,-24 231,4 168,61 105,118 74,190 74,279 74,331 86,379 110,422 133,465 164,499 203,525 241,551 284,571 332,584 367,593 421,602 492,611 637,628 744,649 813,673 814,698 814,713 814,720 814,793 797,845 763,875 717,916 649,936 558,936 473,936 411,921 371,892 330,862 300,809 281,734 L 105,758 C 121,833 147,894 184,941 221,987 274,1023 343,1048 412,1073 493,1085 584,1085 675,1085 748,1074 805,1053 862,1032 903,1005 930,973 957,940 975,899 986,850 992,819 995,764 995,684 L 995,444 C 995,277 999,171 1007,127 1014,82 1029,40 1052,0 L 864,0 C 845,36 833,80 828,130 Z M 813,466 L 813,532 C 748,505 650,483 519,464 445,453 393,441 362,428 331,415 308,395 291,370 274,344 266,315 266,284 266,236 284,196 321,164 357,132 410,116 480,116 549,116 611,131 665,162 719,192 759,233 784,286 803,327 813,387 813,466 Z"
           id="path81" />
      </glyph>
      <glyph
         unicode="c"
         horiz-adv-x="901"
         id="glyph83">
        <path
           d="M 828,388 L 1005,364 C 986,242 936,147 857,78 777,9 679,-24 563,-24 418,-24 301,23 213,118 124,213 80,349 80,526 80,641 99,741 137,827 175,913 233,978 311,1021 388,1064 473,1085 564,1085 679,1085 774,1056 847,998 920,939 967,856 988,749 L 813,722 C 796,793 767,847 725,883 682,919 631,937 571,937 480,937 407,905 350,840 293,775 265,672 265,531 265,388 292,285 347,220 402,155 473,123 561,123 632,123 691,145 738,188 785,231 815,298 828,388 Z"
           id="path85" />
      </glyph>
      <glyph
         unicode="e"
         horiz-adv-x="980"
         id="glyph87">
        <path
           d="M 862,342 L 1048,318 C 1019,209 964,125 885,65 806,5 704,-24 581,-24 426,-24 303,23 212,119 121,214 75,348 75,521 75,700 121,838 213,937 305,1036 424,1085 571,1085 713,1085 829,1037 919,940 1009,843 1054,707 1054,532 1054,521 1054,505 1053,484 L 260,484 C 267,367 300,278 359,216 419,154 493,123 582,123 648,123 704,140 751,175 798,210 835,266 862,342 Z M 270,632 L 864,632 C 856,721 833,788 796,833 738,902 664,937 573,937 490,937 420,909 364,854 307,799 276,725 270,632 Z"
           id="path89" />
      </glyph>
      <glyph
         unicode="g"
         horiz-adv-x="927"
         id="glyph91">
        <path
           d="M 102,-88 L 277,-114 C 284,-168 305,-207 338,-232 383,-265 444,-282 521,-282 604,-282 669,-265 714,-232 759,-199 790,-152 806,-92 815,-55 820,21 819,138 740,45 642,0 525,0 379,0 266,52 186,157 106,262 66,389 66,536 66,637 84,731 121,817 158,902 211,968 281,1015 350,1062 432,1085 526,1085 651,1085 755,1034 836,933 L 836,1061 1002,1061 1002,143 C 1002,-21 985,-139 952,-208 918,-277 865,-331 792,-371 719,-411 629,-431 522,-431 395,-431 293,-403 215,-346 137,-289 99,-203 102,-88 Z M 251,549 C 251,410 279,308 334,244 389,180 459,148 542,148 625,148 694,180 750,244 806,307 834,407 834,543 834,673 805,771 748,837 690,903 620,936 539,936 459,936 391,904 335,839 279,774 251,677 251,549 Z"
           id="path93" />
      </glyph>
      <glyph
         unicode="h"
         horiz-adv-x="848"
         id="glyph95">
        <path
           d="M 315,0 L 135,0 135,1465 315,1465 315,939 C 399,1036 505,1085 633,1085 712,1085 780,1070 838,1039 896,1008 938,965 963,910 988,855 1000,776 1000,672 L 1000,0 820,0 820,672 C 820,762 801,828 762,869 723,910 667,930 596,930 543,930 493,916 446,889 399,861 365,823 345,776 325,729 315,663 315,580 L 315,0 Z"
           id="path97" />
      </glyph>
      <glyph
         unicode="i"
         horiz-adv-x="160"
         id="glyph99">
        <path
           d="M 316,1258 L 136,1258 136,1465 316,1465 316,1258 Z M 316,0 L 136,0 136,1061 316,1061 316,0 Z"
           id="path101" />
      </glyph>
      <glyph
         unicode="m"
         horiz-adv-x="1430"
         id="glyph103">
        <path
           d="M 315,0 L 135,0 135,1061 296,1061 296,912 C 329,964 374,1006 429,1038 484,1069 547,1085 618,1085 697,1085 761,1069 812,1036 862,1003 897,958 918,899 1002,1023 1112,1085 1247,1085 1352,1085 1433,1056 1490,998 1547,939 1575,849 1575,728 L 1575,0 1395,0 1395,668 C 1395,740 1389,792 1378,824 1366,855 1345,881 1314,900 1283,919 1247,929 1206,929 1131,929 1069,904 1020,855 971,805 946,725 946,616 L 946,0 766,0 766,689 C 766,769 751,829 722,869 693,909 645,929 578,929 527,929 481,916 438,889 395,862 363,823 344,772 325,721 315,647 315,550 L 315,0 Z"
           id="path105" />
      </glyph>
      <glyph
         unicode="n"
         horiz-adv-x="848"
         id="glyph107">
        <path
           d="M 315,0 L 135,0 135,1061 297,1061 297,910 C 375,1027 488,1085 635,1085 699,1085 758,1074 812,1051 865,1028 905,997 932,960 959,923 977,878 988,827 995,794 998,735 998,652 L 998,0 818,0 818,645 C 818,718 811,773 797,810 783,846 758,875 723,897 687,918 645,929 597,929 520,929 454,905 399,856 343,807 315,715 315,579 L 315,0 Z"
           id="path109" />
      </glyph>
      <glyph
         unicode="o"
         horiz-adv-x="1006"
         id="glyph111">
        <path
           d="M 68,530 C 68,727 123,872 232,967 323,1046 435,1085 566,1085 712,1085 831,1037 924,942 1017,846 1063,714 1063,545 1063,408 1043,301 1002,223 961,144 901,83 823,40 744,-2 659,-24 566,-24 417,-24 297,23 206,118 114,213 68,351 68,530 Z M 253,530 C 253,394 283,292 342,225 401,157 476,123 566,123 655,123 730,157 789,225 848,293 878,397 878,536 878,667 848,767 789,835 729,902 655,936 566,936 476,936 401,902 342,835 283,768 253,666 253,530 Z"
           id="path113" />
      </glyph>
      <glyph
         unicode="p"
         horiz-adv-x="901"
         id="glyph115">
        <path
           d="M 315,-407 L 135,-407 135,1061 299,1061 299,923 C 338,977 381,1018 430,1045 479,1072 538,1085 607,1085 698,1085 778,1062 847,1015 916,968 969,903 1004,818 1039,733 1057,639 1057,538 1057,429 1038,332 999,245 960,158 903,91 829,45 754,-1 676,-24 594,-24 534,-24 480,-11 433,13 385,38 346,70 315,109 L 315,-407 Z M 298,524 C 298,387 326,286 381,221 436,156 503,123 582,123 661,123 730,157 787,225 844,292 872,397 872,539 872,674 844,776 789,843 733,910 667,944 590,944 513,944 445,908 386,837 327,765 298,661 298,524 Z"
           id="path117" />
      </glyph>
      <glyph
         unicode="q"
         horiz-adv-x="927"
         id="glyph119">
        <path
           d="M 992,-407 L 812,-407 812,112 C 784,73 745,40 695,14 644,-11 591,-24 534,-24 408,-24 300,25 209,126 118,227 72,365 72,540 72,647 91,742 128,827 165,912 218,976 289,1020 359,1063 436,1085 520,1085 651,1085 755,1030 830,919 L 830,1061 992,1061 992,-407 Z M 257,533 C 257,396 286,294 343,226 400,157 469,123 549,123 626,123 692,156 747,221 802,286 830,384 830,517 830,658 801,765 743,836 684,907 616,943 537,943 459,943 393,910 339,844 284,777 257,674 257,533 Z"
           id="path121" />
      </glyph>
      <glyph
         unicode="r"
         horiz-adv-x="557"
         id="glyph123">
        <path
           d="M 313,0 L 133,0 133,1061 295,1061 295,900 C 336,975 375,1025 410,1049 445,1073 483,1085 525,1085 586,1085 647,1066 710,1027 L 648,860 C 604,886 560,899 516,899 477,899 441,887 410,864 379,840 356,807 343,765 323,701 313,631 313,555 L 313,0 Z"
           id="path125" />
      </glyph>
      <glyph
         unicode="s"
         horiz-adv-x="874"
         id="glyph127">
        <path
           d="M 63,316 L 241,344 C 251,273 279,218 325,180 370,142 434,123 517,123 599,123 661,140 701,174 741,207 761,247 761,292 761,333 743,365 708,388 683,404 622,424 524,449 391,482 300,511 249,536 198,560 159,594 133,637 106,680 93,727 93,779 93,826 104,870 126,911 147,951 177,984 214,1011 242,1032 280,1049 329,1064 377,1078 429,1085 484,1085 568,1085 641,1073 704,1049 767,1025 814,993 844,952 874,911 895,856 906,787 L 730,763 C 722,818 699,860 660,891 622,922 568,937 498,937 415,937 356,923 320,896 285,869 267,837 267,800 267,777 274,756 289,737 304,718 327,702 358,689 376,682 429,667 518,643 645,609 734,581 784,560 835,538 874,506 903,465 932,424 946,372 946,311 946,251 928,195 893,142 858,89 808,48 742,19 676,-10 601,-24 518,-24 379,-24 274,4 202,61 129,118 83,203 63,316 Z"
           id="path129" />
      </glyph>
      <glyph
         unicode="t"
         horiz-adv-x="504"
         id="glyph131">
        <path
           d="M 528,160 L 554,1 C 503,-9 458,-14 418,-14 353,-14 302,-4 266,16 230,37 205,64 190,98 175,131 168,202 168,310 L 168,921 35,921 35,1061 168,1061 168,1324 348,1432 348,1061 528,1061 528,921 348,921 348,300 C 348,249 351,216 357,201 364,186 374,175 388,166 403,157 423,153 449,153 469,153 496,155 528,160 Z"
           id="path133" />
      </glyph>
      <glyph
         unicode="u"
         horiz-adv-x="874"
         id="glyph135">
        <path
           d="M 992,0 L 831,0 831,155 C 748,35 636,-24 494,-24 431,-24 373,-12 319,11 264,35 224,65 198,102 171,138 153,182 142,235 135,270 131,326 131,403 L 131,1061 311,1061 311,472 C 311,378 315,315 322,282 333,235 357,198 394,171 431,144 476,130 530,130 584,130 635,144 682,172 729,199 763,237 783,285 802,332 812,401 812,492 L 812,1061 992,1061 992,0 Z"
           id="path137" />
      </glyph>
      <glyph
         unicode="w"
         horiz-adv-x="1456"
         id="glyph139">
        <path
           d="M 518,0 L 331,0 6,1061 192,1061 361,448 424,220 C 426,231 444,304 478,439 L 648,1061 832,1061 992,445 1045,242 1105,447 1288,1061 1464,1061 1130,0 944,0 775,635 734,816 518,0 Z"
           id="path141" />
      </glyph>
    </font>
</defs>
</svg>
